/* XPM */
static char *_d236cc4b25c4a30ff497aa622b12ce0KhIEaRgyy8AibKOz[] = {
/* columns rows colors chars-per-pixel */
"32 32 216 2 ",
"   c #201B3B",
"   c #201B3B",
"X  c #F4F4F4",
"o  c #E1E1E2",
"O  c #D3D3D5",
"+  c #D4D4D6",
"@  c #D4D4D5",
"#  c #D9D9DA",
"$  c #F1F1F1",
"%  c #78766C",
"&  c #3A351D",
"*  c #3A351E",
"=  c #37321C",
"-  c #4C4937",
";  c #C4C4C3",
":  c gray92",
">  c #D3D3D1",
",  c #535043",
"<  c #9E8C33",
"1  c #E2BF0A",
"2  c #CCAA00",
"3  c #C09F00",
"4  c #A08604",
"5  c #433D1D",
"6  c #A6A5A0",
"7  c #F3F3F4",
"8  c #EAEAEB",
"9  c #8A887E",
"0  c #C3AF4E",
"q  c #F4D328",
"w  c #F6CF02",
"e  c #F1CA02",
"r  c #E4BE01",
"t  c #CEAB01",
"y  c #A98C00",
"u  c #726730",
"i  c gray82",
"p  c #AAAAAB",
"a  c #A09C88",
"s  c #F9E16F",
"d  c #EBCA20",
"f  c #B59700",
"g  c #AB8F00",
"h  c #AA8E00",
"j  c #C1A101",
"k  c #CBA801",
"l  c #9B8203",
"z  c #807C66",
"x  c LightGray",
"c  c #84837E",
"v  c #ECDC91",
"b  c #DDC340",
"n  c #B09406",
"m  c #CEAD0C",
"M  c #D4B20E",
"N  c #D2AF09",
"B  c #B49601",
"V  c #C2A201",
"C  c #7E6B10",
"Z  c #A9A8A3",
"A  c #89898B",
"S  c #C3BC9A",
"D  c #F1D85E",
"F  c #C2A516",
"G  c #D4B312",
"H  c #E9CC40",
"J  c #EDD14A",
"K  c #E2C32F",
"L  c #D3AF01",
"P  c #C1A001",
"I  c #BF9F01",
"U  c #B39500",
"Y  c #6A6239",
"T  c #E0E0E3",
"R  c #808080",
"E  c #D5CB9B",
"W  c #CEB32F",
"Q  c #D4B51B",
"!  c #F0D346",
"~  c #B09613",
"^  c #AC910B",
"/  c #AB9007",
"(  c #D1AF01",
")  c #D9B401",
"_  c #B79801",
"`  c #C0A000",
"'  c #695D23",
"]  c #D0D0D1",
"[  c #F6F6F6",
"{  c #B7B7B8",
"}  c #939188",
"|  c #F7E27E",
"   c #201B3B",
"   c #201B3B",
"X  c #F3D228",
"o  c #A58A00",
"O  c #D1AF00",
"+  c #D2B001",
"@  c #AC9000",
"#  c #E2BD01",
"$  c #B99A01",
"%  c #C5A401",
"&  c #967D03",
"*  c #858377",
"=  c #ADADAE",
"-  c #97958A",
";  c #E6D064",
":  c #C3A40E",
">  c #F5D532",
",  c #F4CE08",
"<  c #A68B00",
"1  c #DBB801",
"2  c #E6C002",
"3  c #CCA901",
"4  c #BB9B01",
"5  c #A28600",
"6  c #787668",
"7  c #F3F4F4",
"8  c #AEAEAF",
"9  c #E2CC61",
"0  c #C2A30C",
"q  c #FAD934",
"w  c #F4CD04",
"e  c #F4CC02",
"r  c #D8B401",
"t  c #B89901",
"y  c #A38700",
"u  c #797669",
"i  c #C2A40C",
"p  c #F9D834",
"a  c #A78B00",
"s  c #AD9100",
"d  c #DAB601",
"f  c #FFD602",
"g  c #D9B501",
"h  c #D0AE01",
"j  c #FBD302",
"k  c #FED502",
"l  c #D7B301",
"z  c #797769",
"x  c #E6D065",
"c  c #C3A50F",
"v  c #D9B601",
"b  c #FFD802",
"n  c #FFD702",
"m  c #F2CA02",
"M  c #787568",
"N  c #F3F4F5",
"B  c #B6B6B7",
"V  c #F7E37E",
"C  c #C6AA21",
"Z  c #DCBD21",
"A  c #F3D227",
"S  c #D8B500",
"D  c #ECC502",
"F  c #C5A301",
"G  c #957D04",
"H  c #868378",
"J  c #CEB330",
"K  c #D4B51C",
"L  c #F0D347",
"P  c #B09615",
"I  c #DDBC0E",
"U  c #FFD70A",
"Y  c #F6CE02",
"T  c #685C23",
"R  c #D0D0D0",
"E  c #D4B313",
"W  c #E9CD42",
"Q  c #F5D94C",
"!  c #EFCE2F",
"~  c #D7B201",
"^  c #C0A001",
"/  c #6B623A",
"(  c #E0E1E3",
")  c gray83",
"_  c #868580",
"`  c #ECDC90",
"'  c #DDC23C",
"]  c #B19301",
"[  c #CEAD0B",
"{  c #D4B20D",
"}  c #D1AF09",
"|  c #B49501",
" X c #B69701",
" X c #C4A301",
"XX c #7E6C10",
"oX c #ADACA6",
"OX c #ACADAE",
"+X c #A19D8A",
"@X c #F9DE58",
"#X c #ECC606",
"$X c #AB8E00",
"%X c #D2AE01",
"&X c #A18602",
"*X c #827D68",
"=X c #EBEBEC",
"-X c #C2AE4B",
";X c #F4D224",
":X c #D0D1D2",
">X c #D3D2D1",
",X c #535145",
"<X c #9E8D34",
"1X c #CDAA00",
"2X c #C1A000",
"3X c #443D1D",
"4X c #A7A6A1",
"5X c #757368",
"6X c #3A361C",
"7X c #3B361E",
"8X c #38331C",
"9X c #4C4837",
"0X c #C3C3C2",
"qX c #E0E0E1",
"wX c #D8D9DA",
"eX c white",
/* pixels */
"                                                                ",
"                                                                ",
"                                                                ",
"                          X X X X X                             ",
"                        X o O + @ # $                           ",
"                      $ # % & * = - ; :                         ",
"                    X > , < 1 2 3 4 5 6 7                       ",
"                    8 9 0 q w e r t y u i X                     ",
"                    p a s d f g h j k l z 8                     ",
"                X x c v b n m M N B B V C Z                     ",
"                X A S D F G H J K L P I U Y T X                 ",
"                : R E W Q ! ~ ^ / ( ) _ ` ' ] X                 ",
"              [ { } |     X o O + @ # $ % & * X                 ",
"              [ = - ; : > , < 1 1 < 2 3 4 5 6 7                 ",
"              [ 8 - 9 0 q w < + + @ e r t y u 7                 ",
"              [ 8 - 9 i p w < a s d f g t y u 7                 ",
"              [ 8 - 9 i q w < h e j k l t y z 7                 ",
"              [ 8 - x c > , < v b n m k 4 5 M N                 ",
"              [ B } V C Z A o S b f D t F G H 7                 ",
"                : R E J K L P I U Y ) _ ` T R X                 ",
"                X A S D F E W Q ! ~ ^ I U / ( X                 ",
"                  ) _ ` ' ] [ { } |  X XXXoX                    ",
"                    OX+X@X#Xf $Xh P %X&X*X=X                    ",
"                    8 9 -X;Xw e r t $Xu :XX                     ",
"                    X >X,X<X1 1X2X4 3X4X7                       ",
"                      $ # 5X6X7X8X9X0X=X                        ",
"                        X qXO + @ wX$                           ",
"                          X X X X X                             ",
"                                                                ",
"                                                                ",
"                                                                ",
"                                                                "
};
