/* XPM */
static char *_9249c4972b84c62834058718ac642a6xRvJJoT89p2zcT0T[] = {
/* columns rows colors chars-per-pixel */
"32 32 11 1 ",
"  c #201B3B",
". c #23E736",
"X c #23E737",
"o c #25E638",
"O c #46CF53",
"+ c #43D151",
"@ c #57C361",
"# c #959795",
"$ c gray59",
"% c #939893",
"& c #939894",
/* pixels */
"                                ",
"                                ",
"                                ",
"     $ .ooo                     ",
"    $&O.ooooo            ooo    ",
"    $%+Xoooooo         oooooo   ",
"    $%+Xooooooooooooooooooooo   ",
"    $&+Xooooooooooooooooooooo   ",
"    $%+Xooooooooooooooooooooo   ",
"    $%+.ooooooooooooooooooooo   ",
"    $%+Xooooooooooooooooooooo   ",
"    $&+Xooooooooooooooooooooo   ",
"    $%+.ooooooooooooooooooooo   ",
"    $%+.ooooooooooooooooooooo   ",
"    $$@.oooooooooooooooo   oo   ",
"    $$   oooooooooooooo     o   ",
"    $$     ooooooooo            ",
"    $$                          ",
"    $$                          ",
"    $$                          ",
"    $$                          ",
"    $$                          ",
"    $$                          ",
"    $$                          ",
"    $$                          ",
"    $$                          ",
"    $$                          ",
"    $$                          ",
"    $$                          ",
"    $$                          ",
"    $$                          ",
"                                "
};
