/* XPM */
static char *d5b5e6b65c154ed0df4eedb2a070d7e5M0RgNmRLz819WM8W[] = {
/* columns rows colors chars-per-pixel */
"32 32 196 2 ",
"   c #201B3B",
".  c #000000",
"X  c #000C01",
"o  c #0B0705",
"O  c #130D0B",
"+  c #130500",
"@  c #001E00",
"#  c #061705",
"$  c #1E1500",
"%  c #1B1605",
"&  c #0A1F10",
"*  c #2A0000",
"=  c #240000",
"-  c #2A1B02",
";  c #251903",
":  c #3C1900",
">  c #002300",
",  c #002C00",
"<  c #172A06",
"1  c #003200",
"2  c #003B00",
"3  c #193A07",
"4  c #3C2C17",
"5  c #3E3527",
"6  c #3C332F",
"7  c #4E0000",
"8  c #561100",
"9  c #670000",
"0  c #761D00",
"q  c #492703",
"w  c #573C07",
"e  c #4F3A0E",
"r  c #632200",
"t  c #462F2A",
"y  c #024E00",
"u  c #024401",
"i  c #055702",
"p  c #135504",
"a  c #2E5C14",
"s  c #006C00",
"d  c #006500",
"f  c #037301",
"g  c #126908",
"h  c #2F6700",
"j  c #306E00",
"k  c #145E28",
"l  c #246F39",
"z  c #4F4B00",
"x  c #594706",
"c  c #485501",
"v  c #5B4D0E",
"b  c #6D4905",
"n  c #724C05",
"m  c #685401",
"M  c #755E05",
"N  c #654918",
"B  c #6D501A",
"V  c #456408",
"C  c #50730A",
"Z  c #796604",
"A  c #6D6C0E",
"S  c #5B4533",
"D  c #505A31",
"F  c #574028",
"G  c #6B5529",
"H  c #7A5C2C",
"J  c #785923",
"K  c #624430",
"L  c #6F7130",
"P  c #3A1758",
"I  c #2C4164",
"U  c #715A41",
"Y  c #487657",
"T  c #7E6346",
"R  c #6B406D",
"E  c #860100",
"W  c #8E0000",
"Q  c #BC0600",
"!  c #DA0E00",
"~  c #C31200",
"^  c #EC0100",
"/  c #FC0300",
"(  c #8B5B15",
")  c #945B0B",
"_  c #876903",
"`  c #94640B",
"'  c #8A7F00",
"]  c #8B7818",
"[  c #AC720A",
"{  c #81602D",
"}  c #886738",
"|  c #997130",
" . c #815D5A",
".. c #8F6D44",
"X. c #977547",
"o. c #AD7D65",
"O. c #008400",
"+. c #14810B",
"@. c #2E9819",
"#. c #01AC00",
"$. c #0BA900",
"%. c #03BE01",
"&. c #03B404",
"*. c #14B50D",
"=. c #16972D",
"-. c #168422",
";. c #229838",
":. c #6F8A00",
">. c #5EB218",
",. c #548835",
"<. c #07C901",
"1. c #00D200",
"2. c #0ED400",
"3. c #10C708",
"4. c #2B8745",
"5. c #2FA44B",
"6. c #3BAD57",
"7. c #3C9970",
"8. c #4D9343",
"9. c #7A8444",
"0. c #40AF56",
"q. c #40B164",
"w. c #8D8304",
"e. c #9D910A",
"r. c #B79906",
"t. c #8DA800",
"y. c #9AA200",
"u. c #ACAD00",
"i. c #B4A502",
"p. c #B5B200",
"a. c #D48A12",
"s. c #DF9D10",
"d. c #E59F11",
"f. c #FA9D17",
"g. c #CFBF03",
"h. c #F7B910",
"j. c #FFBD12",
"k. c #9EC600",
"l. c #AAD600",
"z. c #BBE719",
"x. c #D8CD03",
"c. c #D9D801",
"v. c #E1DE01",
"b. c #FCDE09",
"n. c #DEE100",
"m. c #C5F500",
"M. c #C7F800",
"N. c #CCF119",
"B. c #E7EB00",
"V. c #E2E201",
"C. c #FCE108",
"Z. c #F3EB04",
"A. c #EFF500",
"S. c #F4F601",
"D. c #FAFF00",
"F. c #F8F403",
"G. c #84834F",
"H. c #858451",
"J. c #A78259",
"K. c #B0854B",
"L. c #B18A61",
"P. c #AE8370",
"I. c #B1AE61",
"U. c #CB9D65",
"Y. c #D19F64",
"T. c #CB9F74",
"R. c #CEA57B",
"E. c #D2A474",
"W. c #DEAE7F",
"Q. c #D8B977",
"!. c #D7A46D",
"~. c #E0AD7E",
"^. c #E6B27A",
"/. c #3E148D",
"(. c #37268D",
"). c #401C98",
"_. c #502994",
"`. c #5017A6",
"'. c #4A2FB3",
"]. c #6B4EA5",
"[. c #501CC2",
"{. c #875A96",
"}. c #B3739E",
"|. c #846AB6",
" X c #9785B6",
".X c #F3BD85",
"XX c #E5B08F",
"oX c #D4A5A0",
"OX c #E6BCAA",
"+X c #FEC58C",
"@X c #FEC991",
"#X c #CFC8BA",
"$X c #FFD9B0",
"%X c #F7D5AD",
"&X c #D9D1D5",
"*X c #E3D6C4",
/* pixels */
"                                                                ",
"                                                                ",
"                          . u f f f f ,                         ",
"                        X 2 O.#.#.#.#.s ,                       ",
"                      X , O.%.1.1.1.1.#.d ,                     ",
"                    X , O.<.1.1.1.1.1.1.#.s >                   ",
"                  . 1 O.%.2.2.2.2.2.2.2.2.#.f X                 ",
"                  . y $.V l.M.m.m.m.m.m.t.j #.@                 ",
"                . , p C p.S.D.D.D.D.D.D.v.y.j i >               ",
"                ; p c [ F.C.F.D.D.D.C.g.c.B.w.h < 4             ",
"            N L.{ w ` b.x.h.C.D.D.F.s.( w.c.B.m N X.J.w         ",
"            B ^..X{ ' x.M c.D.D.S.n.Z ..} Z c.m K..XU.w         ",
"              J L.H x _ a.Z.D.C.d.Z X.R.K.m d.b X.X.B           ",
"                G e.w.b f.j.r._ ( ..R.+XE.} ` i.] N             ",
"                - u.p.w ) [ n e } T.XXU.X.S x n.Z ;             ",
"                . e.i.q 6 t q H E..XJ.F 5 6 x x.m .             ",
"                . ) [ G &X_.t | +X.XJ P |.#Xb a.w .             ",
"                  ; $ t XX`. X%X+X@X*X].].XX$ ;                 ",
"                    . % } oX%X%X+X@X$XoXo.J o                   ",
"                    1 p m | !.XX~.~.W.U.| z y                   ",
"                  , f *.K v L H.H.G.G.A e D 3.y @               ",
"                O +.<.=.[.k f f f f f f I '.*.3.p O             ",
"              O L.XX9.< t g s s f f f f a t 3 I.Q.T .           ",
"              o L..X}.(.8.c c :.l.k.C z D 8.`.oXXXU .           ",
"              O S T R (.q.,.V t.D.S.C C 8.7.). .H 6             ",
"                . . . & 4.5.=.>.N.z.@.;.5.l . . .               ",
"                      + # i ;.6.0.0.6.-.u o +                   ",
"                  . 9 Q q # # & & & & @ ; r Q *                 ",
"                  . 9 / ~ q + .     . ; 0 ! ^ *                 ",
"                    7 W E : %         $ 8 W E =                 ",
"                      . . .             . . .                   ",
"                                                                "
};
